<svg xmlns="http://www.w3.org/2000/svg" viewBox="0 0 512 512">
  <defs>
    <linearGradient id="bg" x1="80" y1="30" x2="430" y2="480" gradientUnits="userSpaceOnUse">
      <stop stop-color="#fff8ee"/>
      <stop offset=".55" stop-color="#ead7c2"/>
      <stop offset="1" stop-color="#c9a777"/>
    </linearGradient>
    <linearGradient id="d" x1="150" y1="90" x2="360" y2="420" gradientUnits="userSpaceOnUse">
      <stop stop-color="#6f826f"/>
      <stop offset="1" stop-color="#405846"/>
    </linearGradient>
    <filter id="shadow" x="-20%" y="-20%" width="140%" height="150%">
      <feDropShadow dx="0" dy="18" stdDeviation="20" flood-color="#49351f" flood-opacity=".24"/>
    </filter>
  </defs>
  <rect x="32" y="32" width="448" height="448" rx="108" fill="url(#bg)"/>
  <path d="M171 113h91c94 0 160 59 160 143s-66 143-160 143h-91V113Zm74 67v152h22c49 0 80-31 80-76s-31-76-80-76h-22Z" fill="url(#d)" filter="url(#shadow)"/>
  <path d="M244 184c38 32 75 57 112 74-39 24-78 49-112 76V184Z" fill="#fff8ed" opacity=".72"/>
  <path d="M156 408c62-25 135-26 202 0" stroke="#c7a15f" stroke-width="10" stroke-linecap="round" opacity=".7"/>
</svg>
